<?xml version="1.0" encoding="utf-8"?>
<!DOCTYPE svg PUBLIC "-//W3C//DTD SVG 1.1//EN" "http://www.w3.org/Graphics/SVG/1.1/DTD/svg11.dtd">
<svg
  version="1.1"
  id="Burger"
  xmlns="http://www.w3.org/2000/svg"
  xmlns:xlink="http://www.w3.org/1999/xlink"
  x="0px"
  y="0px"
  width="73.546px"
  height="81.307px"
  viewBox="0 0 73.546 81.307"
  enable-background="new 0 0 73.546 81.307"
  xml:space="preserve"
>
  <g id="_x31_">
    <g>
      <path
        fill="#B9DA95"
        d="M71.607,64.065v2.605c0,0.843-0.68,1.523-1.513,1.523H3.523C2.682,68.194,2,67.512,2,66.671v-2.606
			c0-0.833,0.68-1.513,1.523-1.513h66.571C70.926,62.552,71.607,63.233,71.607,64.065z"
      />
    </g>
    <g>
      <path
        d="M70.094,70.133H3.523c-1.909,0-3.462-1.553-3.462-3.462v-2.605c0-1.904,1.553-3.452,3.462-3.452h66.571
			c1.904,0,3.452,1.549,3.452,3.452v2.605C73.546,68.58,71.997,70.133,70.094,70.133z M3.939,66.255h65.73v-1.765H3.939V66.255z"
      />
    </g>
    <g>
      <path
        fill="#F47A59"
        d="M71.546,30.432v2.605c0,0.843-0.68,1.523-1.513,1.523H3.462c-0.841,0-1.523-0.682-1.523-1.523v-2.606
			c0-0.833,0.68-1.513,1.523-1.513h66.571C70.865,28.918,71.546,29.599,71.546,30.432z"
      />
    </g>
    <g>
      <path
        fill="#F47A59"
        d="M67.014,30.432v2.605c0,0.843-0.68,1.523-1.513,1.523H7.993c-0.841,0-1.523-0.682-1.523-1.523v-2.606
			c0-0.833,0.68-1.513,1.523-1.513h57.508C66.333,28.918,67.014,29.599,67.014,30.432z"
      />
    </g>
    <g>
      <path
        d="M70.032,36.499H3.461C1.553,36.499,0,34.946,0,33.037v-2.606c0-1.904,1.553-3.452,3.461-3.452h66.571
			c1.904,0,3.452,1.549,3.452,3.452v2.606C73.484,34.946,71.936,36.499,70.032,36.499z M3.877,32.621h65.729v-1.765H3.877V32.621z"
      />
    </g>
    <g>
      <path
        fill="#A56452"
        d="M7.683,34.56h58.117c2.643,0,4.785,2.143,4.785,4.785v1.604c0,2.643-2.143,4.785-4.785,4.785H7.683
			c-2.643,0-4.785-2.143-4.785-4.785v-1.604C2.898,36.703,5.041,34.56,7.683,34.56z"
      />
    </g>
    <g>
      <path
        fill="#B2705B"
        d="M16.971,34.56h39.666c2.643,0,4.785,2.143,4.785,4.785v1.604c0,2.643-2.143,4.785-4.785,4.785H16.971
			c-2.643,0-4.785-2.143-4.785-4.785v-1.604C12.185,36.703,14.328,34.56,16.971,34.56z"
      />
    </g>
    <g>
      <path
        d="M65.285,47.674H8.2c-3.993,0-7.24-3.248-7.24-7.24v-0.572c0-3.993,3.248-7.24,7.24-7.24h57.085
			c3.992,0,7.24,3.248,7.24,7.24v0.572C72.525,44.426,69.277,47.674,65.285,47.674z M8.2,36.499c-1.854,0-3.363,1.509-3.363,3.363
			v0.572c0,1.854,1.509,3.363,3.363,3.363h57.085c1.854,0,3.362-1.509,3.362-3.363v-0.572c0-1.854-1.508-3.363-3.362-3.363H8.2z"
      />
    </g>
    <g>
      <path
        fill="#F1BA7B"
        d="M63.951,79.369H9.656c-2.508,0-4.542-2.033-4.542-4.542v-4.321c0-1.277,1.035-2.312,2.312-2.312H66.18
			c1.277,0,2.312,1.035,2.312,2.312v4.321C68.493,77.335,66.459,79.369,63.951,79.369z"
      />
    </g>
    <g>
      <path
        fill="#FDC784"
        d="M56.704,79.029H16.779c-2.508,0-4.542-2.033-4.542-4.542v-3.642c0-1.277,1.035-2.312,2.312-2.312h44.383
			c1.277,0,2.312,1.035,2.312,2.312v3.642C61.246,76.996,59.213,79.029,56.704,79.029z"
      />
    </g>
    <g>
      <path
        d="M63.461,81.307H10.146c-3.843,0-6.971-3.127-6.971-6.97v-3.582c0-2.482,2.019-4.501,4.501-4.501h58.254
			c2.482,0,4.501,2.019,4.501,4.501v3.582C70.431,78.181,67.305,81.307,63.461,81.307z M7.676,70.133
			c-0.343,0-0.623,0.28-0.623,0.623v3.582c0,1.705,1.388,3.093,3.093,3.093h53.315c1.705,0,3.093-1.388,3.093-3.093v-3.582
			c0-0.343-0.28-0.623-0.623-0.623H7.676z"
      />
    </g>
    <g>
      <path
        fill="#F1BA7B"
        d="M26.324,1.939h20.958c11.714,0,21.21,9.496,21.21,21.21v3.873c0,1.048-0.849,1.897-1.897,1.897H7.012
			c-1.048,0-1.897-0.849-1.897-1.897v-3.873C5.115,11.435,14.611,1.939,26.324,1.939z"
      />
    </g>
    <g>
      <path
        fill="#FDC784"
        d="M36.833,6.548h-0.182c12.977,0,23.497,5.911,23.497,18.888v1.381c0,1.161-0.941,2.102-2.102,2.102H15.438
			c-1.161,0-2.102-0.941-2.102-2.102v-1.381C13.336,12.459,23.856,6.548,36.833,6.548z"
      />
    </g>
    <g>
      <path
        d="M66.391,30.857H7.216c-2.228,0-4.04-1.813-4.04-4.04v-1.38C3.176,11.411,14.586,0,28.612,0h16.383
			c14.025,0,25.436,11.411,25.436,25.436v1.38C70.431,29.044,68.619,30.857,66.391,30.857z M28.612,3.877
			c-11.888,0-21.559,9.671-21.559,21.559v1.38c0,0.09,0.073,0.163,0.163,0.163h59.175c0.09,0,0.163-0.073,0.163-0.163v-1.38
			c0-11.888-9.671-21.559-21.559-21.559H28.612z"
      />
    </g>
    <g>
      <path
        fill="#A56452"
        d="M70.583,56.722v0.479c0,2.952-2.393,5.345-5.345,5.345h-6.053c-0.869,0-1.683,0.365-2.315,0.962
			c-0.679,0.643-1.6,1.04-2.609,1.04c-1.446,0-2.701-0.814-3.343-2.002c-0.287-0.536-0.45-1.149-0.45-1.791v3.592
			c0,2.086-1.707,3.793-3.793,3.793h0c-2.09,0-3.784-1.694-3.784-3.784v0c0-1-0.811-1.81-1.81-1.81H8.246
			c-2.952,0-5.345-2.393-5.345-5.345v-0.479c0-2.952,2.393-5.345,5.345-5.345h56.992C68.19,51.377,70.583,53.77,70.583,56.722z"
      />
    </g>
    <g>
      <path
        fill="#FFF2BC"
        d="M58.019,19.183c-0.497,0-0.993-0.189-1.371-0.568l-1.197-1.198c-0.757-0.757-0.757-1.985,0.001-2.742
			c0.758-0.756,1.986-0.756,2.742,0.001l1.197,1.198c0.757,0.757,0.757,1.985-0.001,2.742
			C59.012,18.994,58.515,19.183,58.019,19.183z"
      />
    </g>
    <g>
      <path
        fill="#FFF2BC"
        d="M15.584,19.183c-0.496,0-0.992-0.189-1.371-0.568c-0.757-0.757-0.757-1.985,0-2.741l1.198-1.198
			c0.757-0.757,1.984-0.757,2.741,0c0.757,0.757,0.757,1.985,0,2.741l-1.198,1.198C16.577,18.994,16.08,19.183,15.584,19.183z"
      />
    </g>
    <g>
      <path
        fill="#FFF2BC"
        d="M37.402,12.4c-0.497,0-0.993-0.189-1.371-0.568l-1.197-1.198c-0.757-0.757-0.757-1.985,0.001-2.742
			c0.758-0.756,1.985-0.756,2.742,0.001l1.197,1.198c0.757,0.757,0.757,1.985-0.001,2.742C38.394,12.211,37.898,12.4,37.402,12.4z"
      />
    </g>
    <g>
      <path
        fill="#FFF2BC"
        d="M45.471,24.131c-0.496,0-0.992-0.189-1.371-0.568c-0.757-0.757-0.757-1.985,0-2.741l1.197-1.197
			c0.757-0.757,1.984-0.757,2.741,0c0.757,0.757,0.757,1.985,0,2.741l-1.197,1.197C46.463,23.941,45.967,24.131,45.471,24.131z"
      />
    </g>
    <g>
      <path
        fill="#FFF2BC"
        d="M28.133,24.131c-0.496,0-0.992-0.189-1.371-0.568l-1.197-1.197c-0.757-0.757-0.757-1.985,0-2.741
			c0.757-0.757,1.984-0.757,2.741,0l1.197,1.197c0.757,0.757,0.757,1.985,0,2.741C29.125,23.941,28.629,24.131,28.133,24.131z"
      />
    </g>
    <g>
      <path
        d="M24.781,47.674c-0.496,0-0.992-0.189-1.371-0.568c-0.757-0.757-0.757-1.985,0-2.741l2.714-2.714
			c0.757-0.757,1.984-0.757,2.741,0c0.757,0.757,0.757,1.985,0,2.741l-2.714,2.714C25.773,47.485,25.277,47.674,24.781,47.674z"
      />
    </g>
    <g>
      <path
        d="M45.99,47.674c-0.496,0-0.992-0.189-1.371-0.568c-0.757-0.757-0.757-1.985,0-2.741l2.714-2.714
			c0.757-0.757,1.984-0.757,2.741,0c0.757,0.757,0.757,1.985,0,2.741l-2.714,2.714C46.982,47.485,46.486,47.674,45.99,47.674z"
      />
    </g>
    <g>
      <path
        d="M16.89,39.213c-0.496,0-0.992-0.189-1.371-0.568l-2.714-2.714c-0.757-0.757-0.757-1.985,0-2.741
			c0.757-0.757,1.984-0.757,2.741,0l2.714,2.714c0.757,0.757,0.757,1.985,0,2.741C17.882,39.023,17.386,39.213,16.89,39.213z"
      />
    </g>
    <g>
      <path
        d="M38.099,39.213c-0.496,0-0.992-0.189-1.371-0.568l-2.714-2.714c-0.757-0.757-0.757-1.985,0-2.741
			c0.757-0.757,1.984-0.757,2.741,0l2.714,2.714c0.757,0.757,0.757,1.985,0,2.741C39.091,39.023,38.595,39.213,38.099,39.213z"
      />
    </g>
    <g>
      <path
        d="M59.308,39.213c-0.496,0-0.992-0.189-1.371-0.568l-2.714-2.714c-0.757-0.757-0.757-1.985,0-2.741
			c0.757-0.757,1.984-0.757,2.741,0l2.714,2.714c0.757,0.757,0.757,1.985,0,2.741C60.3,39.023,59.804,39.213,59.308,39.213z"
      />
    </g>
    <g>
      <path
        d="M45.99,56.03c-0.496,0-0.992-0.189-1.371-0.568c-0.757-0.757-0.757-1.985,0-2.741l2.714-2.714
			c0.757-0.757,1.984-0.757,2.741,0c0.757,0.757,0.757,1.985,0,2.741l-2.714,2.714C46.982,55.841,46.486,56.03,45.99,56.03z"
      />
    </g>
    <g>
      <path
        fill="#B2705B"
        d="M17.425,51.377h38.634c2.928,0,5.302,2.374,5.302,5.302v0.572c0,2.928-2.374,5.302-5.302,5.302h-5.591
			l0.046,1.471c0.07,2.257-1.732,4.129-3.99,4.144h0c-2.246,0.015-4.068-1.813-4.045-4.059l0.015-1.556H17.425
			c-2.928,0-5.302-2.374-5.302-5.302v-0.572C12.123,53.751,14.497,51.377,17.425,51.377z"
      />
    </g>
    <g>
      <path
        d="M38.099,64.491c-0.496,0-0.992-0.189-1.371-0.568l-2.714-2.714c-0.757-0.757-0.757-1.985,0-2.741
			c0.757-0.757,1.984-0.757,2.741,0l2.714,2.714c0.757,0.757,0.757,1.985,0,2.741C39.091,64.301,38.595,64.491,38.099,64.491z"
      />
    </g>
    <g>
      <path
        d="M16.89,64.491c-0.496,0-0.992-0.189-1.371-0.568l-2.714-2.714c-0.757-0.757-0.757-1.985,0-2.741
			c0.757-0.757,1.984-0.757,2.741,0l2.714,2.714c0.757,0.757,0.757,1.985,0,2.741C17.882,64.301,17.386,64.491,16.89,64.491z"
      />
    </g>
    <g>
      <path
        d="M46.675,70.078c-3.113,0-5.652-2.498-5.72-5.594H8.246c-4.016,0-7.284-3.267-7.284-7.284v-0.479
			c0-4.016,3.267-7.283,7.284-7.283h56.992c4.016,0,7.283,3.267,7.283,7.283v0.479c0,4.016-3.267,7.283-7.283,7.283h-6.054
			c-0.339,0-0.688,0.153-0.981,0.431c-1.071,1.014-2.47,1.571-3.943,1.571c-0.739,0-1.458-0.142-2.122-0.408
			C51.403,68.395,49.232,70.078,46.675,70.078z M8.246,53.316c-1.878,0-3.406,1.528-3.406,3.406V57.2
			c0,1.878,1.528,3.406,3.406,3.406h32.835c2.067,0,3.749,1.682,3.749,3.749c0,1.017,0.828,1.845,1.845,1.845
			c1.022,0,1.854-0.832,1.854-1.854v-3.592c0-1.071,0.868-1.939,1.939-1.939c1.071,0,1.939,0.868,1.939,1.939
			c0,0.303,0.076,0.606,0.22,0.874c0.554,1.026,2.069,1.269,2.911,0.471c1.016-0.962,2.311-1.493,3.647-1.493h6.054
			c1.878,0,3.406-1.528,3.406-3.406v-0.479c0-1.878-1.528-3.406-3.406-3.406H8.246z"
      />
    </g>
    <g>
      <path
        fill="#FFD074"
        d="M71.546,47.249v2.605c0,0.843-0.68,1.523-1.513,1.523h-40.43c-1.742,0-3.413,0.692-4.645,1.924
			l-1.603,1.603c-1.078,1.078-2.826,1.079-3.906,0.002l-1.612-1.609c-1.232-1.229-2.901-1.92-4.641-1.92H3.462
			c-0.841,0-1.523-0.682-1.523-1.523v-2.606c0-0.833,0.68-1.513,1.523-1.513h66.571C70.865,45.735,71.546,46.416,71.546,47.249z"
      />
    </g>
    <g>
      <path
        d="M21.4,57.649c-1.203,0-2.406-0.457-3.321-1.372l-1.611-1.609c-0.874-0.873-2.036-1.353-3.271-1.353H3.461
			C1.553,53.316,0,51.763,0,49.854v-2.606c0-1.903,1.553-3.452,3.461-3.452h66.571c1.904,0,3.452,1.549,3.452,3.452v2.605
			c0,1.909-1.549,3.462-3.452,3.462h-40.43c-1.237,0-2.4,0.481-3.274,1.356l-1.603,1.603C23.808,57.191,22.604,57.649,21.4,57.649z
			 M3.877,49.439h9.319c2.27,0,4.404,0.883,6.01,2.487l1.611,1.609c0.322,0.322,0.845,0.32,1.165-0.001l1.603-1.603
			c1.607-1.607,3.743-2.492,6.015-2.492h40.005v-1.765H3.877V49.439z"
      />
    </g>
  </g>
</svg>
